<svg xmlns="http://www.w3.org/2000/svg" width="324" height="242" viewBox="0 0 324 242">
    <g fill="none" fill-rule="evenodd">
        <g fill-rule="nonzero">
            <g>
                <g>
                    <path fill="#EBEBEB" d="M0 212.291H324V213.291H0zM270.073 222.724H291.53499999999997V223.724H270.073zM168.694 220.695H177.047V221.695H168.694zM208.999 221.382H226.58599999999998V222.382H208.999zM233.066 216.707H269.425V217.707H233.066zM33.994 224.209H51.185V225.209H33.994zM56.953 224.209H71.857V225.209H56.953zM84.888 220.617H124.293V221.617H84.888zM153.576 183.372H28.454c-2.041-.004-3.694-1.66-3.694-3.703V3.67C24.778 1.64 26.425.003 28.454 0h125.122c2.043 0 3.7 1.658 3.7 3.702V179.67c0 2.045-1.657 3.703-3.7 3.703zM28.454.13c-1.952.003-3.532 1.587-3.532 3.54v176c0 1.952 1.58 3.536 3.532 3.54h125.122c1.953-.004 3.535-1.587 3.538-3.54v-176c-.003-1.954-1.585-3.537-3.538-3.54H28.454zM293.745 183.372H168.616c-2.042-.004-3.696-1.66-3.7-3.703V3.67c.021-2.03 1.67-3.667 3.7-3.67h125.129c2.026.007 3.67 1.643 3.687 3.67v176c0 2.04-1.649 3.695-3.687 3.702zM168.616.13c-1.952.003-3.534 1.586-3.538 3.54v176c.004 1.953 1.586 3.536 3.538 3.54h125.129c1.952-.004 3.534-1.587 3.538-3.54v-176c-.004-1.954-1.586-3.537-3.538-3.54H168.616z" transform="translate(-312 -574) translate(312 574)"/>
                    <path fill="#FAFAFA" d="M191.147 14.914H289.222V212.29199999999997H191.147z" transform="translate(-312 -574) translate(312 574)"/>
                    <path fill="#FFF" d="M222.685 40.202H257.677V89.047H222.685z" transform="translate(-312 -574) translate(312 574)"/>
                    <path fill="#EBEBEB" d="M289.215 14.914H290.215V212.29199999999997H289.215z" transform="translate(-312 -574) translate(312 574) rotate(180 289.52 113.602)"/>
                    <path fill="#E0E0E0" d="M284.355 212.291L283.707 212.291 283.707 20.425 196.655 20.425 196.655 212.291 196.007 212.291 196.007 19.777 284.355 19.777z" transform="translate(-312 -574) translate(312 574)"/>
                    <path fill="#E0E0E0" d="M276.82 117.253h-13.525c-.736.042-1.436-.327-1.817-.96-.38-.632-.38-1.423 0-2.055.381-.633 1.08-1.002 1.817-.96h13.524c.737-.042 1.436.327 1.817.96.381.632.381 1.423 0 2.055-.38.633-1.08 1.002-1.817.96zm-13.525-3.326c-.5-.035-.978.212-1.239.64-.26.43-.26.968 0 1.396.261.429.74.676 1.24.641h13.523c.5.035.978-.212 1.24-.64.26-.43.26-.968 0-1.396-.262-.429-.74-.676-1.24-.641h-13.524z" transform="translate(-312 -574) translate(312 574)"/>
                    <path fill="#FAFAFA" d="M36.269 70.314H127.488V78.14699999999999H36.269zM37.435 78.147H127.48100000000001V212.291H37.435z" transform="translate(-312 -574) translate(312 574)"/>
                    <path fill="#F0F0F0" d="M127.488 70.321H134.098V212.291H127.488z" transform="translate(-312 -574) translate(312 574) rotate(180 130.792 141.306)"/>
                    <path fill="#F0F0F0" d="M44.997 85.928H79.827V165.197H44.997z" transform="translate(-312 -574) translate(312 574)"/>
                    <path fill="#FFF" d="M69.874 85.928L61.703 85.928 54.95 165.19 63.115 165.19z" transform="translate(-312 -574) translate(312 574)"/>
                    <path fill="#F0F0F0" d="M118.791 206.196h-72.66c-.85-.004-1.539-.692-1.542-1.543v-33.07c.003-.85.692-1.54 1.542-1.543h72.66c.85.004 1.54.693 1.543 1.544v33.069c-.004.85-.692 1.54-1.543 1.543zm-72.66-35.378c-.403.004-.729.33-.732.733v33.07c.003.403.33.729.732.732h72.66c.403-.003.73-.33.733-.733v-33.069c-.004-.403-.33-.729-.733-.733h-72.66z" transform="translate(-312 -574) translate(312 574)"/>
                    <path fill="#F0F0F0" d="M114.048 177.996c-.687 0-1.307-.414-1.57-1.05-.262-.635-.115-1.367.372-1.852.487-.485 1.218-.63 1.852-.364.634.265 1.046.886 1.044 1.574 0 .45-.18.881-.498 1.199-.318.318-.75.495-1.2.493zm0-2.593c-.49 0-.888.397-.888.888 0 .49.398.888.888.888s.888-.397.888-.888c-.002-.234-.096-.457-.263-.622-.166-.164-.391-.255-.625-.253v-.013z" transform="translate(-312 -574) translate(312 574)"/>
                    <path fill="#EBEBEB" d="M44.997 85.928H45.997V165.197H44.997z" transform="translate(-312 -574) translate(312 574)"/>
                    <path fill="#F0F0F0" d="M85.095 85.928H119.925V165.197H85.095z" transform="translate(-312 -574) translate(312 574)"/>
                    <path fill="#FFF" d="M101.231 85.928L97.867 85.928 91.115 165.19 94.478 165.19zM106.291 85.928L102.928 85.928 96.17 165.19 99.533 165.19z" transform="translate(-312 -574) translate(312 574)"/>
                    <path fill="#EBEBEB" d="M85.095 85.928H86.095V165.197H85.095zM37.435 78.147H127.48100000000001V79.147H37.435z" transform="translate(-312 -574) translate(312 574)"/>
                    <path fill="#FAFAFA" d="M51.84 13.422H145.36599999999999V58.596999999999994H51.84z" transform="translate(-312 -574) translate(312 574)"/>
                    <path fill="#FFF" d="M110.614 52.787c-9.259 0-16.764-7.51-16.764-16.774 0-9.264 7.505-16.775 16.764-16.775 9.258 0 16.763 7.51 16.763 16.775-.014 9.258-7.51 16.76-16.763 16.774zm0-32.9c-8.9 0-16.116 7.22-16.116 16.126 0 8.906 7.215 16.126 16.116 16.126 8.9 0 16.115-7.22 16.115-16.126-.01-8.902-7.22-16.115-16.115-16.126z" transform="translate(-312 -574) translate(312 574)"/>
                    <path fill="#EBEBEB" d="M129.334 24.102c.79-2.116.93-4.419.402-6.614l-1.75-.059c.39 2.132.126 4.331-.758 6.31-6.37-.052-7.497 6.672-12.584 5.187-1.816-.46-3.709-.529-5.553-.201-.767.117-1.525.288-2.268.512-6.74 1.757-14.969 5.959-16.433 12.268l1.561.298s1.018-4.681 7.776-8.02c-.642.845-1.12 1.804-1.406 2.827-4.154 15.29 24.015 12.598 31.486 7.262 9.137-6.49 5.243-17.514-.473-19.77zM56.447 18.538H84.674V20.341H56.447zM56.447 23.135H77.546V24.938000000000002H56.447zM56.447 32.323H84.674V34.126H56.447zM56.447 36.921H70.09400000000001V38.724H56.447zM72.304 36.921H82.024V38.724H72.304zM56.447 41.518H79.166V43.321H56.447zM56.447 46.109H84.674V47.912H56.447zM175.226 212.291h-26.64c-.623-.001-1.15-.464-1.23-1.083l-5.38-42.828c-.042-.353.068-.707.304-.973.235-.267.573-.42.928-.42h37.396c.355 0 .693.153.928.42.236.266.346.62.303.973l-5.378 42.828c-.079.62-.607 1.085-1.231 1.083z" transform="translate(-312 -574) translate(312 574)"/>
                    <path fill="#F5F5F5" d="M141.4 166.104c-.972.7-.2 11.542 1.076 13.935 1.276 2.393 8.897.337 17.995-.467s19.997 2.412 20.47.467c.473-1.945 3.13-12.527 1.737-13.935-1.115-1.128-14.516-1.128-20.406-.453-5.89.674-18.798-1.031-20.872.453z" opacity=".7" transform="translate(-312 -574) translate(312 574)"/>
                </g>
                <g fill="#F5F5F5" transform="translate(-312 -574) translate(312 574) translate(37 226)">
                    <ellipse cx="125.5" cy="8.16" rx="125.429" ry="7.547"/>
                </g>
                <g>
                    <path fill="#263238" d="M40.795 4.146c-4.889-4.607-12.95-5.491-15.968-.695-3.018 4.795-1.295 9.864-7.486 15.18-4.209 3.633-1.088 14.764 22.923 13.744 11.364-.48 7.518-12.347 7.214-17.955-.305-5.608-.324-12.47-6.683-10.274z" transform="translate(-312 -574) translate(312 574) translate(65 26)"/>
                    <path fill="#B55B52" d="M31.335 199.775L25.52 200.002 25.41 193.685 31.224 193.458z" transform="translate(-312 -574) translate(312 574) translate(65 26)"/>
                    <path fill="#263238" d="M25.157 198.793h6.573c.238-.002.446.163.498.397l1.14 5.23c.053.26-.014.528-.181.731-.168.203-.418.32-.68.316-2.3-.039-3.413-.175-6.307-.175-1.781 0-6.398.188-8.859.188-2.46 0-2.771-2.443-1.768-2.664 4.533-.994 7.169-2.36 8.62-3.665.265-.236.61-.363.964-.358z" transform="translate(-312 -574) translate(312 574) translate(65 26)"/>
                    <path fill="#000" d="M25.41 193.692L25.461 196.629 31.276 196.376 31.224 193.465z" opacity=".2" transform="translate(-312 -574) translate(312 574) translate(65 26)"/>
                    <path fill="#2A628F" d="M16.836 72.555c-1.295 7.005.194 41.245 2.17 56.367 2.628 20.08 5.348 66.707 5.348 66.707l7.77-.468s1.943-49.102.357-65.225c.9-20.75 3.127-56.991 3.127-56.991l-18.772-.39z" transform="translate(-312 -574) translate(312 574) translate(65 26)"/>
                    <path fill="#000" d="M34.32 95.527c.272-5.257-3.439-9.93-4.935 0-.945 6.31 1.01 17.37 3.575 25.181.395-8.13.9-17.182 1.36-25.181z" opacity=".2" transform="translate(-312 -574) translate(312 574) translate(65 26)"/>
                    <path fill="#B55B52" d="M74.059 180.13L70.278 183.756 65.156 178.245 68.931 174.626z" transform="translate(-312 -574) translate(312 574) translate(65 26)"/>
                    <path fill="#263238" d="M69.287 183.853l3.885-5.341c.131-.193.39-.25.59-.13l4.532 2.677c.226.15.38.386.43.653.048.267-.013.543-.17.764-1.38 1.839-2.138 2.651-3.84 5.003-1.05 1.443-2.26 3.432-3.705 5.433-1.444 2.002-3.419.566-2.991-.403 1.942-4.347 1.12-5.556 1.016-7.629-.033-.36.056-.723.253-1.027z" transform="translate(-312 -574) translate(312 574) translate(65 26)"/>
                    <path fill="#000" d="M65.156 178.252L67.798 181.085 71.547 177.433 68.937 174.626z" opacity=".2" transform="translate(-312 -574) translate(312 574) translate(65 26)"/>
                    <path fill="#2A628F" d="M25.85 72.743s8.366 44.19 10.542 61.345c1.295 10.248 29.851 47.12 29.851 47.12l4.876-5.153s-10.45-26.994-23.04-43.006c-.498-18.768 1.626-49.661-5.6-59.961l-16.63-.345z" transform="translate(-312 -574) translate(312 574) translate(65 26)"/>
                    <path fill="#B55B52" d="M18.507 38.86c0 3.796-.175 7.52-.454 11.282-.278 3.762-.647 7.506-1.25 11.275l-.11.708-.148.8c-.113.523-.236 1.037-.37 1.54-.284.994-.647 1.949-.97 2.872-.71 1.809-1.513 3.579-2.41 5.302-1.764 3.37-3.775 6.604-6.015 9.677-.49.659-1.396.843-2.102.426-.707-.417-.987-1.301-.65-2.051v-.04c1.521-3.3 2.998-6.686 4.286-10.04.648-1.676 1.224-3.372 1.716-5.035.234-.832.44-1.658.603-2.463.084-.403.142-.8.2-1.19l.065-.578.065-.65c.33-3.6.524-7.252.706-10.91.181-3.66.265-7.35.369-10.976v-.033c.028-1.794 1.501-3.226 3.29-3.198 1.787.03 3.214 1.508 3.185 3.302l-.006-.02z" transform="translate(-312 -574) translate(312 574) translate(65 26)"/>
                    <path fill="#2A628F" d="M16.396 34.11c-7.952 2.333-6.929 16.85-6.929 16.85l11.306 3.055s1.878-10.632 1.71-14.446c-.169-3.964-1.703-6.739-6.087-5.459z" transform="translate(-312 -574) translate(312 574) translate(65 26)"/>
                    <path fill="#B55B52" d="M4.87 79.853L.887 83.25 6.47 85.54s1.729-2.645.926-5.154l-2.525-.532z" transform="translate(-312 -574) translate(312 574) translate(65 26)"/>
                    <path fill="#B55B52" d="M1.593 88.437l2.545.318c.581.073 1.139-.254 1.36-.799l.97-2.417-5.58-2.288-.422 3.75c-.08.708.423 1.348 1.127 1.436z" transform="translate(-312 -574) translate(312 574) translate(65 26)"/>
                    <path fill="#2A628F" d="M13.825 37.886c-.356 14.556 2.979 25.181 3.018 34.669l25.636.533c-.188-9.5-.11-15.7 3.963-32.726.358-1.5.07-3.081-.792-4.357-.863-1.276-2.22-2.129-3.741-2.35-1.535-.227-3.238-.442-4.967-.559-3.874-.36-7.77-.442-11.656-.246-2.732.194-5.672.597-7.77.916-2.056.307-3.605 2.036-3.691 4.12z" transform="translate(-312 -574) translate(312 574) translate(65 26)"/>
                    <path fill="#FFF" d="M37.72 51.338l-7.603-.052c-.153.006-.301-.055-.406-.167-.105-.113-.155-.265-.138-.418l.421-3.613c.057-.333.343-.577.68-.579l7.596.052c.152-.008.3.05.406.162.105.112.155.264.138.417l-.421 3.62c-.054.331-.339.576-.674.578z" transform="translate(-312 -574) translate(312 574) translate(65 26)"/>
                    <path fill="#FFF" d="M25.325 32.856s-4.183 2.937.24 10.307c3.631-3.545 7.437-6.905 11.403-10.067l-11.643-.24z" opacity=".4" transform="translate(-312 -574) translate(312 574) translate(65 26)"/>
                    <path fill="#B55B52" d="M36.087 19.918c-.809 3.743-1.69 10.618.881 13.178-4.042 1.598-7.77 3.904-11.008 6.81-2.843-5.237-.648-7.056-.648-7.056 4.196-.91 4.158-4.023 3.49-6.96l7.285-5.972z" transform="translate(-312 -574) translate(312 574) translate(65 26)"/>
                    <path fill="#000" d="M35.297 20.568c-.1 2.236-.677 4.425-1.69 6.42-.705 1.371-2.59 1.95-4.487 2.06.063-1.062-.04-2.128-.304-3.158l6.481-5.322z" opacity=".2" transform="translate(-312 -574) translate(312 574) translate(65 26)"/>
                    <path fill="#B55B52" d="M42.155 15.336c-1.943 5.992-2.59 8.565-6.475 10.905-5.796 3.515-12.705-.156-12.615-6.596.091-5.797 3.238-14.615 9.759-15.519 2.936-.426 5.882.706 7.784 2.99 1.902 2.285 2.488 5.397 1.547 8.22z" transform="translate(-312 -574) translate(312 574) translate(65 26)"/>
                    <path fill="#263238" d="M26.323 7.467c3.237.916 11.124 1.598 12.704.65-1.483 2.287-.07 8.538 2.221 10.053 3.09-2.49 3.776-8.507.92-11.49-2.856-2.982-11.883-6.55-15.845.787z" transform="translate(-312 -574) translate(312 574) translate(65 26)"/>
                    <path fill="#B55B52" d="M43.061 19.001c-.413 1.154-1.272 2.09-2.382 2.6-1.464.65-2.435-.598-2.228-2.112.188-1.358 1.179-3.34 2.746-3.366.686.01 1.323.362 1.698.94.374.577.437 1.305.166 1.938z" transform="translate(-312 -574) translate(312 574) translate(65 26)"/>
                    <path fill="#263238" d="M42.893 71.587l1.114 2.333c.084.175-.13.357-.427.35l-26.893-.565c-.227 0-.414-.123-.427-.273l-.188-2.307c0-.156.194-.286.447-.286l25.966.546c.162-.01.317.067.408.202z" transform="translate(-312 -574) translate(312 574) translate(65 26)"/>
                    <path fill="#2A628F" d="M39.351 74.426h.693c.136 0 .246-.071.24-.156l-.266-3.002c0-.084-.13-.162-.265-.162h-.7c-.136 0-.24.065-.233.156l.26 2.995c.012.098.129.17.271.17zM18.636 73.998h.7c.136 0 .246-.065.24-.156l-.266-3.003c0-.084-.13-.156-.266-.162h-.7c-.135 0-.245.065-.232.156l.259 2.996c.013.09.13.162.265.169zM28.99 74.212h.7c.136 0 .246-.065.24-.156l-.266-2.996c0-.09-.13-.162-.266-.162H28.7c-.136 0-.24.071-.233.156l.259 3.002c.013.078.13.156.265.156z" transform="translate(-312 -574) translate(312 574) translate(65 26)"/>
                    <path fill="#263238" d="M32.837 14.836c-.13.494-.492.832-.816.747-.324-.084-.48-.552-.356-1.046.123-.494.492-.832.816-.747.323.084.479.552.356 1.046zM27.255 13.406c-.123.5-.486.832-.81.748-.323-.085-.485-.546-.356-1.047.13-.5.486-.825.81-.747.324.078.486.552.356 1.046z" transform="translate(-312 -574) translate(312 574) translate(65 26)"/>
                    <path fill="#263238" d="M27.035 12.425l-1.101-.65s.376 1.092 1.1.65z" transform="translate(-312 -574) translate(312 574) translate(65 26)"/>
                    <path fill="#A02724" d="M28.492 14.634c-.725 1.019-1.586 1.933-2.558 2.717.415.494 1.027.779 1.67.78l.888-3.497z" transform="translate(-312 -574) translate(312 574) translate(65 26)"/>
                    <path fill="#263238" d="M28.803 20.074c-.047-.04-.067-.103-.052-.163.012-.038.038-.07.073-.088.036-.018.077-.022.115-.01 1.226.387 2.563.165 3.6-.597.063-.054.157-.047.21.016.054.063.047.157-.016.211-1.111.842-2.562 1.084-3.885.65l-.045-.02zM35.88 12.555c-.039-.035-.072-.077-.097-.124-.271-.714-.869-1.254-1.606-1.449-.163-.028-.271-.184-.243-.347.029-.164.184-.273.347-.244.937.233 1.704.906 2.059 1.807.047.125.007.266-.099.348-.105.082-.252.086-.36.009zM26.154 10.248l-.039-.039c-.116-.117-.116-.306 0-.422.694-.653 1.656-.936 2.59-.76.078.02.145.07.185.14.04.069.05.152.03.23-.042.16-.204.255-.363.214-.75-.142-1.522.088-2.073.618-.096.072-.226.08-.33.019z" transform="translate(-312 -574) translate(312 574) translate(65 26)"/>
                    <path fill="#B55B52" d="M46.435 38.25c1.885 2.502 3.646 5.023 5.355 7.642.849 1.3 1.69 2.6 2.487 4.003.858 1.42 1.628 2.891 2.305 4.406.205.472.382.956.531 1.449.108.38.182.77.22 1.163.011.158.011.317 0 .475v.292c-.012.129-.031.257-.058.383l-.045.202V58.427l-.052.143c-.304.78-.544 1.566-.907 2.32-.656 1.545-1.445 3.03-2.357 4.439-.939 1.422-2.038 2.73-3.276 3.899-.631.593-1.309 1.135-2.027 1.618-.37.24-.745.474-1.133.689l-.615.299c-.234.104-.402.175-.739.298l-1.23-2.963c.088-.086.18-.166.278-.24l.357-.312c.24-.215.472-.449.699-.689.461-.497.894-1.02 1.295-1.566.79-1.116 1.48-2.302 2.06-3.542.271-.65.569-1.26.796-1.95.226-.688.479-1.299.686-1.949.207-.65.37-1.364.57-2.04v-.189.189c0 .078-.032.195-.039.24-.003.05-.003.1 0 .15v.227c0-.065-.181-.416-.317-.689-.59-1.111-1.38-2.391-2.189-3.613-.81-1.222-1.651-2.476-2.512-3.704-1.716-2.463-3.484-4.952-5.22-7.395l5.077-3.847z" transform="translate(-312 -574) translate(312 574) translate(65 26)"/>
                    <path fill="#B55B52" d="M47.84 71.366l-4.992 3.541-2.24-5.12s3.03-1.632 5.42-.54l1.812 2.119zM39.37 75.33l-1.25-1.748c-.493-.701-.34-1.67.344-2.184l2.143-1.611 2.24 5.12-1.372.852c-.705.434-1.624.247-2.105-.43z" transform="translate(-312 -574) translate(312 574) translate(65 26)"/>
                    <path fill="#2A628F" d="M36.444 36.703c-1.697 6.765 8.767 18.345 8.767 18.345l8.8-9.17s-4.02-8.616-9.272-11.32c-3.665-1.884-7.544-.838-8.295 2.145z" transform="translate(-312 -574) translate(312 574) translate(65 26)"/>
                    <path fill="#263238" d="M32.617 13.855l-1.101-.65s.369 1.092 1.1.65zM21.369 54.775c-.097 0-.184-.06-.22-.15-.044-.12.017-.253.136-.298l1.01-.39c1.937-.718 3.228-2.567 3.238-4.64l.07-9.5c.043-1.491-.96-2.808-2.404-3.16-1.444-.351-2.936.36-3.579 1.704l-4.377 8.448c-.963 1.825-.705 4.058.648 5.614l.712.813c.065.06.09.154.064.24-.026.085-.098.148-.186.162-.088.014-.177-.024-.228-.097l-.712-.884c-1.493-1.692-1.785-4.136-.732-6.134l4.378-8.448c.77-1.484 2.453-2.245 4.071-1.84 1.618.404 2.748 1.87 2.734 3.542l-.07 9.501c-.012 2.256-1.407 4.272-3.51 5.069l-1.01.383-.033.065z" transform="translate(-312 -574) translate(312 574) translate(65 26)"/>
                    <path fill="#263238" d="M25.766 41.915c-.125-.003-.227-.102-.233-.228-.188-1.537-1.3-2.799-2.797-3.175-1.497-.376-3.07.212-3.957 1.48-.04.072-.117.118-.2.12-.084.001-.162-.042-.204-.114-.043-.072-.045-.161-.004-.234.987-1.464 2.78-2.154 4.489-1.727 1.709.427 2.97 1.88 3.158 3.637 0 .128-.1.234-.226.24h-.026zM23.24 36.723c-.077-.001-.15-.04-.194-.104-.24-.533-.24-1.144 0-1.677.34-1.062 1.143-1.91 2.182-2.307.058-.022.122-.02.177.007.056.027.097.077.115.136.039.12-.025.25-.143.292-.889.366-1.573 1.105-1.871 2.021-.195.407-.22.875-.071 1.3.033.053.045.117.031.178-.013.06-.05.114-.103.147-.04.012-.082.014-.123.007zM20.838 54.418c-.11.422 0 .825.31.897.312.071.596-.221.7-.65.104-.43-.039-.832-.317-.897-.279-.065-.59.22-.693.65zM39.215 43.195c.207.981.907 1.657 1.548 1.52.64-.136.99-1.052.777-2.027-.214-.975-.907-1.663-1.548-1.52-.64.142-.99 1.072-.777 2.027z" transform="translate(-312 -574) translate(312 574) translate(65 26)"/>
                    <path fill="#263238" d="M41.242 42.89c-.06.001-.119-.021-.162-.062-.044-.042-.07-.099-.071-.16-.136-3.593-1.496-8.057-4.144-9.377-.114-.058-.16-.197-.104-.312.026-.056.074-.099.133-.118.059-.02.123-.014.178.015 2.836 1.41 4.254 5.926 4.397 9.747.005.062-.016.123-.058.17-.042.045-.1.07-.163.07l-.006.027z" transform="translate(-312 -574) translate(312 574) translate(65 26)"/>
                    <path fill="#FFF" d="M38.522 43.28c.136.838.738 1.436 1.347 1.338.609-.097.997-.858.861-1.702-.136-.845-.744-1.437-1.353-1.34-.609.098-.99.859-.855 1.703z" transform="translate(-312 -574) translate(312 574) translate(65 26)"/>
                    <path fill="#263238" d="M38.47 43.351c.195 1.04.739 1.807 1.211 1.716.473-.091.687-1.001.492-2.04-.194-1.04-.738-1.808-1.21-1.717-.473.091-.693 1.001-.493 2.041zM15.942 53.19c-.103.428.04.831.318.896.278.065.589-.214.7-.65.11-.435-.04-.825-.318-.896-.279-.072-.59.227-.7.65z" transform="translate(-312 -574) translate(312 574) translate(65 26)"/>
                </g>
                <g>
                    <path fill="#263238" d="M44.924 16.505c-4.111.733-4.631.357-4.683-2.598-.052-2.954-1.546-7.882.533-9.427.29-.275.705-.375 1.089-.263.384.112.679.42.775.808.264-.673 1.01-1.02 1.695-.785.085-.61.182-2.175 1.3-2.597 1.117-.422 2.143.59 2.143.59s-.084-2.408 1.54-2.175c.992.159 1.786.909 2 1.89 0 0 .936-1.364 2.202-.825 1.267.54 1 2.123 1 2.123s1.345-.649 2.346.085c1 .733.272 1.909.272 1.909s.91-2.338 2.644-1.046c1.56 1.169.143 3 .143 3s1.715-.28 2.13.584c1.404 2.942-3.942 6.227-4.118 11.194-8.21 3.103-13.01-2.467-13.01-2.467z" transform="translate(-312 -574) translate(312 574) translate(108 10)"/>
                    <path fill="#FFB573" d="M15.29 95.443l-2.74-.506-3.625 3.46c-.399.38-.618.911-.604 1.462l.052 2.83c.013 1.003.786 1.832 1.786 1.916l1.26.11c.947.09 1.82-.517 2.066-1.435l.65-2.311s3.579-4.227 1.156-5.526z" transform="translate(-312 -574) translate(312 574) translate(108 10)"/>
                    <path fill="#2A628F" d="M42.976 43.67c-1.839 4.76-3.67 9.538-5.437 14.33-1.767 4.791-3.52 9.603-5.164 14.336l-.293.876-.201.572c-.078.214-.156.435-.227.603-.306.773-.61 1.41-.916 2.052-.61 1.299-1.228 2.46-1.852 3.636-1.253 2.338-2.546 4.59-3.851 6.837-2.599 4.5-5.197 8.895-7.886 13.356l-8.27-5.143c2.729-4.24 5.36-8.616 7.88-12.985 1.24-2.195 2.462-4.396 3.599-6.577.565-1.091 1.11-2.182 1.591-3.247.227-.513.455-1.039.604-1.467.052-.123.072-.208.104-.292l.104-.338.299-.948c1.565-4.986 3.209-9.804 4.794-14.693l4.755-14.615 10.367 3.707z" transform="translate(-312 -574) translate(312 574) translate(108 10)"/>
                    <path fill="#FFF" d="M42.976 43.67c-1.839 4.76-3.67 9.538-5.437 14.33-1.767 4.791-3.52 9.603-5.164 14.336l-.293.876-.201.572c-.078.214-.156.435-.227.603-.306.773-.61 1.41-.916 2.052-.61 1.299-1.228 2.46-1.852 3.636-1.253 2.338-2.546 4.59-3.851 6.837-2.599 4.5-5.197 8.895-7.886 13.356l-8.27-5.143c2.729-4.24 5.36-8.616 7.88-12.985 1.24-2.195 2.462-4.396 3.599-6.577.565-1.091 1.11-2.182 1.591-3.247.227-.513.455-1.039.604-1.467.052-.123.072-.208.104-.292l.104-.338.299-.948c1.565-4.986 3.209-9.804 4.794-14.693l4.755-14.615 10.367 3.707z" opacity=".6" transform="translate(-312 -574) translate(312 574) translate(108 10)"/>
                    <path fill="#FFB573" d="M18.201 217.449L12.374 217.734 15.129 202.567 20.669 203.84zM60.001 217.67L54.174 217.67 54.194 204.184 60.014 204.184z" transform="translate(-312 -574) translate(312 574) translate(108 10)"/>
                    <path fill="#263238" d="M53.622 216.994h7.1c.236-.003.44.164.48.396l.936 5.195c.042.26-.032.525-.204.725-.171.2-.422.315-.686.313-2.286-.039-3.95-.175-6.827-.175-1.767 0-7.145.182-9.562.182-2.416 0-2.663-2.415-1.656-2.636 4.547-.98 7.97-2.331 9.458-3.623.263-.239.605-.373.961-.377z" transform="translate(-312 -574) translate(312 574) translate(108 10)"/>
                    <path fill="#000" d="M15.129 202.574L13.855 209.586 19.396 210.859 20.669 203.846zM54.187 204.184H60.013999999999996V211.131H54.187z" opacity=".2" transform="translate(-312 -574) translate(312 574) translate(108 10)"/>
                    <path fill="#2A628F" d="M64.704 43.501c-4.547 20.446-3.339 40.626-3.826 44.995l-31.095-2.051c-3.248-24.673.377-40.411 2.436-46.865.683-2.175 2.57-3.755 4.833-4.045 4.624-.507 9.28-.652 13.926-.435 3.146.188 6.268.662 9.328 1.415 3.142.719 5.11 3.844 4.398 6.986z" transform="translate(-312 -574) translate(312 574) translate(108 10)"/>
                    <path fill="#FFB573" d="M55.33 21.244c-1.026 3.85-2.24 10.668-.285 14.116.305.538-.28 1-.306 1.623-.071 1.909-2.656 2.48-7.281 2.506-4.625.026-6.606-1.902-5.346-3.72.193-.278.487-.468.818-.533 4.333-.967 4.417-4.363 3.826-7.603l8.575-6.389z" transform="translate(-312 -574) translate(312 574) translate(108 10)"/>
                    <path fill="#000" d="M47.126 38.43c1.215 1.69 1.986 3.656 2.242 5.72 4.618-2.168 6.82-7.433 6.82-7.433l-1.39-1.487s-5.132.967-7.672 3.2zM46.672 38.45c-1.7 1.384-3.136 3.064-4.235 4.96-3.229-2-2.163-7.7-2.163-7.7l2.63-.52s1.176 1.085 3.768 3.26z" opacity=".4" transform="translate(-312 -574) translate(312 574) translate(108 10)"/>
                    <path fill="#263238" d="M46.88 38.307l-.994.098-1.683 1.11c-.107.669.012 1.354.338 1.948.977.19 1.975.258 2.969.201.667-.322 1.198-.87 1.5-1.545l-1.234-1.578-.896-.234z" transform="translate(-312 -574) translate(312 574) translate(108 10)"/>
                    <path fill="#2A628F" d="M46.88 38.307c1.248 1.561 2.205 3.334 2.825 5.233 4.619-2.168 7.308-7.35 7.308-7.35l-2.228-1.947s-5.366 1.844-7.905 4.064zM46.88 38.307c-1.783 1.124-3.342 2.568-4.6 4.26-3.247-1.994-2.006-7.363-2.006-7.363l2.63-.52s1.39 1.461 3.976 3.623z" transform="translate(-312 -574) translate(312 574) translate(108 10)"/>
                    <path fill="#000" d="M51.836 23.848l-5.067 3.779c.154.78.238 1.574.254 2.37 1.825-.137 4.45-1.948 4.767-3.844.153-.76.168-1.54.046-2.305z" opacity=".2" transform="translate(-312 -574) translate(312 574) translate(108 10)"/>
                    <path fill="#FFB573" d="M56.26 14.881c-.735 5.733-.87 9.09-3.976 11.889-4.67 4.148-11.601 1.045-12.595-4.792-.897-5.253.455-13.745 6.242-15.66 2.591-.873 5.45-.343 7.554 1.402 2.104 1.745 3.154 4.455 2.774 7.161z" transform="translate(-312 -574) translate(312 574) translate(108 10)"/>
                    <path fill="#263238" d="M54.856 20.063c-1.299-1.253-.487-7.253.17-8.973-3.249.311-13.746.298-13.35-2.597.397-2.896 4.216-5.357 10.459-3.325 5.196 1.695 6.495 4.285 6.495 6.402.078 4.35-3.774 8.493-3.774 8.493z" transform="translate(-312 -574) translate(312 574) translate(108 10)"/>
                    <path fill="#FFB573" d="M58.273 20.128c-.617 1.178-1.67 2.068-2.936 2.48-1.656.513-2.475-1.013-2.007-2.65.416-1.467 1.786-3.512 3.443-3.304 1.656.208 2.26 2.013 1.5 3.474z" transform="translate(-312 -574) translate(312 574) translate(108 10)"/>
                    <path fill="#263238" d="M11.959 207.807l9.633 2.123s9.367-36.69 12.147-54.623c.85-5.454 2.825-13.24 4.625-21.426 2.267-10.324 5.118-21.491 7.457-30.237 2.468-9.213 4.3-15.836 4.3-15.836l-20.338-1.344s-9.464 47.988-11.374 65.655c-1.994 18.361-6.45 55.688-6.45 55.688z" transform="translate(-312 -574) translate(312 574) translate(108 10)"/>
                    <path fill="#000" d="M38.364 133.868c2.267-10.324 5.118-21.491 7.457-30.237l-2.137-4.545c-5.047 6.025-6.34 24.666-5.32 34.782z" opacity=".2" transform="translate(-312 -574) translate(312 574) translate(108 10)"/>
                    <path fill="#263238" d="M39.475 87.087s4.209 49.04 5.846 66.019c1.818 18.595 6.697 56.688 6.697 56.688H61.8s.442-40.567-1.299-58.526c-.247-35.307.37-62.765.37-62.765l-21.396-1.416z" transform="translate(-312 -574) translate(312 574) translate(108 10)"/>
                    <path fill="#2A628F" d="M50.771 210.021L63.333 210.021 63.333 206.268 50.283 205.548zM10.698 207.768L22.176 210.3 22.995 206.593 10.978 203.567z" transform="translate(-312 -574) translate(312 574) translate(108 10)"/>
                    <path fill="#263238" d="M47.874 15.907c0 .468-.306.831-.611.812-.305-.02-.533-.416-.5-.883.032-.468.305-.831.61-.812.306.02.533.416.5.883zM42.573 15.583c0 .467-.305.83-.61.811-.306-.02-.533-.415-.5-.883.032-.467.305-.83.61-.811.305.02.532.39.5.883z" transform="translate(-312 -574) translate(312 574) translate(108 10)"/>
                    <path fill="#ED893E" d="M43.788 15.907c-.655 1.393-1.497 2.69-2.501 3.857.773.831 2.208.571 2.208.571l.293-4.428z" transform="translate(-312 -574) translate(312 574) translate(108 10)"/>
                    <path fill="#263238" d="M45.392 21.718c1.064-.06 2.057-.552 2.748-1.363.05-.053.05-.136 0-.189-.055-.05-.14-.05-.195 0-.782.893-1.942 1.36-3.124 1.26-.037-.004-.073.007-.1.03-.029.024-.047.057-.05.093-.004.077.054.143.13.15.196.018.394.025.591.02zM49.166 14.284c.046-.005.09-.02.13-.045.128-.083.166-.254.085-.383-.471-.758-1.28-1.242-2.17-1.299-.136.02-.237.138-.237.276s.1.255.237.276c.703.052 1.339.438 1.708 1.039.05.089.146.141.247.136zM39.955 13.59c.092-.007.174-.058.221-.137.336-.612.944-1.027 1.637-1.117.15-.013.264-.141.26-.292-.01-.152-.14-.267-.292-.26-.885.107-1.663.638-2.086 1.422-.073.131-.026.297.104.37.05.022.104.027.156.013z" transform="translate(-312 -574) translate(312 574) translate(108 10)"/>
                    <path fill="#2A628F" d="M51.654 218.007c.517-.012 1.031-.082 1.533-.208.054-.012.095-.056.104-.11.014-.052-.007-.107-.052-.136-.208-.137-2.04-1.299-2.702-.961-.146.076-.24.225-.247.39-.047.271.049.548.253.733.326.223.718.326 1.111.292zm1.137-.402c-.994.2-1.754.162-2.06-.104-.14-.125-.204-.315-.168-.5 0-.104.052-.143.09-.163.345-.168 1.397.325 2.138.767z" transform="translate(-312 -574) translate(312 574) translate(108 10)"/>
                    <path fill="#2A628F" d="M53.155 217.806c.022.009.048.009.071 0 .045-.024.073-.072.071-.123 0-.072-.071-1.753-.727-2.305-.16-.14-.374-.205-.585-.176-.214 0-.4.149-.448.357-.15.65.961 1.948 1.553 2.253.021.005.044.003.065-.006zm-1.079-2.363c.116 0 .227.045.312.123.416.35.565 1.33.61 1.824-.577-.454-1.299-1.422-1.195-1.805 0-.032 0-.116.208-.136h.065v-.006z" transform="translate(-312 -574) translate(312 574) translate(108 10)"/>
                    <path fill="#263238" d="M11.504 215.17l6.833 1.948c.225.064.373.28.351.513l-.506 5.24c-.034.26-.18.493-.4.638-.219.145-.49.187-.744.114-2.189-.649-3.748-1.24-6.495-2.025-1.702-.48-7.243-2.468-9.263-3.844-2.02-1.376-.832-3.5.123-3.11 4.294 1.74 7.314 1.46 9.094.65.31-.16.667-.203 1.007-.124z" transform="translate(-312 -574) translate(312 574) translate(108 10)"/>
                    <path fill="#2A628F" d="M9.328 215.611c.502.125 1.016.197 1.533.215.057.003.11-.027.136-.078.032-.045.032-.105 0-.15-.162-.181-1.61-1.792-2.332-1.655-.163.036-.296.154-.35.311-.115.247-.098.535.045.767.248.299.588.507.968.59zm1.208-.078c-1.013-.077-1.734-.324-1.949-.649-.089-.164-.089-.362 0-.526.04-.104.091-.123.137-.13.37-.084 1.214.682 1.812 1.331v-.026z" transform="translate(-312 -574) translate(312 574) translate(108 10)"/>
                    <path fill="#2A628F" d="M10.828 215.82c.026.006.053.006.078 0 .051-.014.091-.054.104-.105 0-.065.403-1.7-.071-2.415-.118-.176-.304-.294-.513-.325-.208-.057-.427.034-.533.221-.325.584.403 2.117.877 2.597.017.014.037.022.058.026zm-.396-2.566c.111.031.206.103.266.202.312.454.182 1.441.098 1.948-.435-.591-.851-1.714-.65-2.059 0-.032.059-.103.24-.078l.046-.013zM55.428 34.853c-.14-.022-.283.02-.387.117-.104.097-.157.235-.146.377.228 3.48-5.196 9.739-6.495 28.483-.773 11.402-1.481 46.95-.962 65.44.016.492.257.95.654 1.24.397.29.906.382 1.38.248 9.587-2.675 14.115 3.81 15.96-3.838-.098-9.16-2.872-42.053-2.157-49.851.714-7.798 3.683-28.984 4.423-34.632.657-4.909-9.587-7.097-12.27-7.584z" transform="translate(-312 -574) translate(312 574) translate(108 10)"/>
                    <path fill="#FFF" d="M55.428 34.853c-.14-.022-.283.02-.387.117-.104.097-.157.235-.146.377.228 3.48-5.196 9.739-6.495 28.483-.773 11.402-1.481 46.95-.962 65.44.016.492.257.95.654 1.24.397.29.906.382 1.38.248 9.587-2.675 14.115 3.81 15.96-3.838-.098-9.16-2.872-42.053-2.157-49.851.714-7.798 3.683-28.984 4.423-34.632.657-4.909-9.587-7.097-12.27-7.584z" opacity=".7" transform="translate(-312 -574) translate(312 574) translate(108 10)"/>
                    <path fill="#2A628F" d="M61.748 50.74c-.422 2.897-.584 14.597 2.202 20.226.468-3.896 1.079-8.525 1.67-12.986l-3.872-7.24z" opacity=".2" transform="translate(-312 -574) translate(312 574) translate(108 10)"/>
                    <path fill="#FFB573" d="M65.73 101.339l-2.767.325-2.449 4.37c-.271.477-.328 1.048-.156 1.57l.884 2.688c.31.954 1.294 1.515 2.273 1.299l1.234-.26c.937-.19 1.598-1.032 1.56-1.987l-.079-2.389s2.196-5.07-.5-5.616z" transform="translate(-312 -574) translate(312 574) translate(108 10)"/>
                    <path fill="#2A628F" d="M67.25 40.255c.884 2.597 1.702 5.162 2.514 7.759.812 2.597 1.624 5.194 2.39 7.791.767 2.597 1.508 5.253 2.19 7.96.337 1.357.65 2.727.948 4.162.136.72.273 1.455.383 2.234.052.402.11.772.143 1.22l.059.65.032.733c.013.247.013.494 0 .74 0 .26 0 .507-.032.708l-.059.65-.071.584c-.091.785-.208 1.5-.325 2.214-.234 1.415-.507 2.779-.786 4.13-.559 2.7-1.182 5.343-1.812 7.972-.63 2.63-1.3 5.253-1.95 7.87l-1.948 7.85-9.406-2.552c1.455-5.071 2.78-10.233 4.008-15.362.598-2.597 1.156-5.142 1.657-7.681.246-1.299.48-2.532.65-3.753.097-.61.175-1.214.227-1.76.05-.43.067-.865.052-1.298v-.273l-.046-.35c0-.221-.078-.513-.117-.767-.09-.545-.208-1.123-.338-1.714-.266-1.181-.584-2.402-.929-3.629-.65-2.46-1.474-4.954-2.312-7.434-1.656-4.96-3.52-9.954-5.443-14.81l10.321-3.844z" transform="translate(-312 -574) translate(312 574) translate(108 10)"/>
                    <path fill="#FFF" d="M67.25 40.255c.884 2.597 1.702 5.162 2.514 7.759.812 2.597 1.624 5.194 2.39 7.791.767 2.597 1.508 5.253 2.19 7.96.337 1.357.65 2.727.948 4.162.136.72.273 1.455.383 2.234.052.402.11.772.143 1.22l.059.65.032.733c.013.247.013.494 0 .74 0 .26 0 .507-.032.708l-.059.65-.071.584c-.091.785-.208 1.5-.325 2.214-.234 1.415-.507 2.779-.786 4.13-.559 2.7-1.182 5.343-1.812 7.972-.63 2.63-1.3 5.253-1.95 7.87l-1.948 7.85-9.406-2.552c1.455-5.071 2.78-10.233 4.008-15.362.598-2.597 1.156-5.142 1.657-7.681.246-1.299.48-2.532.65-3.753.097-.61.175-1.214.227-1.76.05-.43.067-.865.052-1.298v-.273l-.046-.35c0-.221-.078-.513-.117-.767-.09-.545-.208-1.123-.338-1.714-.266-1.181-.584-2.402-.929-3.629-.65-2.46-1.474-4.954-2.312-7.434-1.656-4.96-3.52-9.954-5.443-14.81l10.321-3.844z" opacity=".7" transform="translate(-312 -574) translate(312 574) translate(108 10)"/>
                    <path fill="#2A628F" d="M42.794 34.366c.291-.002.558.164.684.427.127.262.09.574-.093.8-1.546 1.792-2.52 4.253-4.352 12.148-2.209 9.525-6.912 57.448-7.795 80.932-.009.395-.19.766-.496 1.016-.307.25-.707.353-1.096.283-4.585-.844-7.73 1.376-8.23-1.565-.552-3.246 1.507-34.256 5.36-48.838-.605-12.934 1.578-38.879 5.936-42.327 2.365-1.915 7.393-2.83 10.082-2.876z" transform="translate(-312 -574) translate(312 574) translate(108 10)"/>
                    <path fill="#FFF" d="M42.794 34.366c.291-.002.558.164.684.427.127.262.09.574-.093.8-1.546 1.792-2.52 4.253-4.352 12.148-2.209 9.525-6.912 57.448-7.795 80.932-.009.395-.19.766-.496 1.016-.307.25-.707.353-1.096.283-4.585-.844-7.73 1.376-8.23-1.565-.552-3.246 1.507-34.256 5.36-48.838-.605-12.934 1.578-38.879 5.936-42.327 2.365-1.915 7.393-2.83 10.082-2.876z" opacity=".7" transform="translate(-312 -574) translate(312 574) translate(108 10)"/>
                    <path fill="#263238" d="M45.32 40.8s-5.612 15.758-7.586 28.965c-.156 3.59 1.552 10.544 2.936 13.576 2.89-6.291 4.696-9.999 4.982-13.576.461-5.383 1.221-28.86 1.221-28.86l-1.552-.105zM57.065 59.545c-.117-.004-.217-.085-.244-.199-.027-.114.025-.231.127-.288l1.065-.558c2.037-1.047 3.211-3.245 2.95-5.52l-1.157-10.465c-.175-1.606-1.43-2.883-3.033-3.086-1.603-.204-3.137.718-3.71 2.229l-3.74 9.836c-.826 2.134-.244 4.556 1.46 6.084l.897.811c.099.101.099.263 0 .364-.101.099-.263.099-.364 0l-.896-.805c-1.857-1.676-2.485-4.324-1.579-6.655l3.774-9.817c.664-1.726 2.421-2.776 4.256-2.542 1.835.234 3.273 1.691 3.48 3.529l1.157 10.46c.28 2.492-1.013 4.897-3.248 6.038l-1.065.552c-.039.024-.084.036-.13.032z" transform="translate(-312 -574) translate(312 574) translate(108 10)"/>
                    <path fill="#263238" d="M60.287 44.8c-.128.001-.237-.094-.253-.22-.311-1.733-1.759-3.032-3.515-3.156-1.442-.182-3.403.272-4.19 2.168-.03.092-.11.159-.205.174-.095.015-.191-.023-.249-.1-.058-.078-.068-.181-.026-.268.9-1.74 2.79-2.732 4.734-2.483 1.943.248 3.524 1.683 3.957 3.593.02.138-.076.265-.214.286l-.04.006zM56.792 39.43c-.068-.003-.132-.034-.178-.085-.045-.051-.068-.119-.062-.187.078-1.266-.104-3.571-1.3-4.169-.127-.066-.176-.223-.11-.35.067-.127.224-.177.351-.11 1.728.889 1.572 4.278 1.546 4.661-.007.133-.114.237-.247.24zM52.083 58.649c-.065.487-.37.844-.689.799-.318-.046-.526-.461-.461-.942.065-.48.364-.844.682-.798.318.045.526.46.468.941zM36.98 48.124c-.41 1.033-1.299 1.656-1.949 1.39-.65-.266-.902-1.299-.493-2.357.409-1.058 1.299-1.656 1.948-1.39.65.267.897 1.325.494 2.357z" transform="translate(-312 -574) translate(312 574) translate(108 10)"/>
                    <path fill="#263238" d="M34.843 47.456h-.052c-.14-.03-.23-.166-.201-.306.857-4.265 4.404-11.037 7.528-12.985.078-.067.187-.082.28-.039.093.043.151.137.15.24-.002.101-.063.193-.157.234-3.02 1.902-6.457 8.44-7.295 12.641-.021.123-.128.213-.253.215z" transform="translate(-312 -574) translate(312 574) translate(108 10)"/>
                    <path fill="#FFF" d="M37.72 48.339c-.298.89-1.065 1.44-1.714 1.227-.65-.215-.942-1.117-.65-2.013.293-.896 1.066-1.441 1.715-1.227.65.214.948 1.117.65 2.013z" transform="translate(-312 -574) translate(312 574) translate(108 10)"/>
                    <path fill="#263238" d="M37.766 48.43c-.396 1.097-1.13 1.843-1.63 1.662-.5-.182-.585-1.221-.182-2.325.403-1.104 1.13-1.844 1.63-1.662.5.182.585 1.22.182 2.324zM57.643 59.363c-.058.48-.37.838-.688.799-.319-.04-.527-.468-.462-.948.065-.48.37-.838.689-.799.318.04.526.461.461.948z" transform="translate(-312 -574) translate(312 574) translate(108 10)"/>
                </g>
                <g>
                    <path fill="#263238" d="M16.435 16.888c2.157 5.908-3.58 8.878-7.34 17.58-3.759 8.704 5.311 19.083 19.233 19.31 13.922.226 14.36-13.13 12.203-22.713-2.158-9.583 2.352-11.142 1.396-18.46-1.228-9.616-15.06-16.901-20.55-8.076-4.884-.459-6.829 7.196-4.942 12.36z" transform="translate(-312 -574) translate(312 574) translate(186 24)"/>
                    <path fill="#FFC3BD" d="M57.67 96.412v-.75c-.013-.361-.103-.714-.265-1.036l-2.338-4.62-2.74-.518c-1.938 2.09 0 6.257 0 6.257v.667c.001 1.122.745 2.107 1.822 2.413l.368.11c.77.204 1.59.03 2.21-.467.622-.498.971-1.26.943-2.056z" transform="translate(-312 -574) translate(312 574) translate(186 24)"/>
                    <path fill="#2A628F" d="M46.061 36.98l1.008 7.078 1.06 7.06c.348 2.361.716 4.71 1.091 7.066l1.118 7.014.135.692c.046.226.123.518.181.77l.194.796.226.822c.29 1.087.646 2.213.956 3.326.646 2.232 1.39 4.49 2.12 6.735 1.485 4.485 3.035 8.988 4.69 13.414l-9.135 3.235L45.13 81.31c-.756-2.284-1.525-4.568-2.255-6.897-.362-1.171-.723-2.33-1.066-3.54l-.265-.9-.252-.937c-.084-.324-.174-.609-.251-.964l-.24-1.062-1.35-7.117c-.43-2.347-.88-4.694-1.35-7.04l-1.382-7.04-1.441-6.988 10.782-1.845z" transform="translate(-312 -574) translate(312 574) translate(186 24)"/>
                    <path fill="#FFF" d="M46.061 36.98l1.008 7.078 1.06 7.06c.348 2.361.716 4.71 1.091 7.066l1.118 7.014.135.692c.046.226.123.518.181.77l.194.796.226.822c.29 1.087.646 2.213.956 3.326.646 2.232 1.39 4.49 2.12 6.735 1.485 4.485 3.035 8.988 4.69 13.414l-9.135 3.235L45.13 81.31c-.756-2.284-1.525-4.568-2.255-6.897-.362-1.171-.723-2.33-1.066-3.54l-.265-.9-.252-.937c-.084-.324-.174-.609-.251-.964l-.24-1.062-1.35-7.117c-.43-2.347-.88-4.694-1.35-7.04l-1.382-7.04-1.441-6.988 10.782-1.845z" opacity=".6" transform="translate(-312 -574) translate(312 574) translate(186 24)"/>
                    <path fill="#263238" d="M44.608 36.436c.303 3.449.032 12.029-3.424 33.298H17.28c.381-9.24.407-15.129-3.553-32.761-.182-.801-.025-1.643.434-2.324.459-.681 1.178-1.142 1.988-1.274 2.334-.384 4.687-.64 7.048-.77 3.618-.259 7.25-.259 10.867 0 2.971.272 6.195.81 8.146 1.165 1.306.248 2.286 1.339 2.397 2.666z" transform="translate(-312 -574) translate(312 574) translate(186 24)"/>
                    <path fill="#FFC3BD" d="M24.252 20.35c.684 3.5 1.37 9.92-1.08 12.255 0 0 3.063 3.727 7.753 3.727 4.69 0 3.12-3.727 3.12-3.727-3.876-.931-3.798-3.83-3.12-6.548l-6.673-5.707z" transform="translate(-312 -574) translate(312 574) translate(186 24)"/>
                    <path fill="#000" d="M26.971 22.68l3.947 3.37c-.167.637-.28 1.286-.336 1.942-1.492-.214-3.83-1.488-4.153-3.113-.149-.77.413-1.837.542-2.2z" opacity=".2" transform="translate(-312 -574) translate(312 574) translate(186 24)"/>
                    <path fill="#FFC3BD" d="M20.136 13.478c.911 5.785 1.176 8.25 4.393 10.955 4.845 4.07 11.738 1.682 12.572-4.258.75-5.344-.872-13.911-6.777-15.678-2.645-.806-5.518-.183-7.593 1.647s-3.057 4.604-2.595 7.334z" transform="translate(-312 -574) translate(312 574) translate(186 24)"/>
                    <path fill="#263238" d="M21.099 17.645c3.308-3.28 4.445-7.842 4.134-9.706 3.185.887 5.524-.368 5.382-.912 2.248 2.2 6.324 3.94 5.866 1.572-.46-2.368-3.476-6.735-9.768-5.176-6.292 1.56-8.715 8.03-8.625 10.657.09 2.627 3.01 3.565 3.01 3.565z" transform="translate(-312 -574) translate(312 574) translate(186 24)"/>
                    <path fill="#263238" d="M28.425 14.132c.045.479.33.834.646.809.316-.026.523-.44.478-.913-.045-.472-.336-.834-.646-.809-.31.026-.478.44-.478.913zM33.793 13.62c.045.473.336.835.646.803.31-.032.523-.434.478-.906-.045-.472-.336-.835-.646-.809-.31.026-.523.44-.478.913z" transform="translate(-312 -574) translate(312 574) translate(186 24)"/>
                    <path fill="#263238" d="M34.142 12.747l1.105-.433s-.504.944-1.105.433z" transform="translate(-312 -574) translate(312 574) translate(186 24)"/>
                    <path fill="#ED847E" d="M32.23 14.63c.522 1.042 1.185 2.006 1.97 2.866-.455.395-1.059.57-1.654.48l-.316-3.346z" transform="translate(-312 -574) translate(312 574) translate(186 24)"/>
                    <path fill="#263238" d="M30.143 20.059c.235.016.47.016.704 0 .076-.01.13-.079.123-.155-.001-.037-.018-.072-.047-.095-.028-.024-.065-.034-.101-.028-1.193.138-2.38-.3-3.198-1.178-.052-.047-.13-.05-.184-.006-.055.043-.07.12-.036.18.706.777 1.692 1.238 2.74 1.282z" transform="translate(-312 -574) translate(312 574) translate(186 24)"/>
                    <path fill="#FFC3BD" d="M18.857 18.182c.432 1.048 1.258 1.882 2.3 2.323 1.383.57 2.255-.647 2.016-2.025-.214-1.294-1.195-3.086-2.655-3.06-.646.031-1.233.383-1.566.937-.334.555-.37 1.24-.095 1.825z" transform="translate(-312 -574) translate(312 574) translate(186 24)"/>
                    <path fill="#263238" d="M26.584 11.647c.114.04.24.004.316-.09.814-1.003 2.474-.906 2.487-.906.153.007.284-.107.298-.26.007-.073-.017-.147-.066-.204-.049-.056-.118-.09-.193-.093-.077 0-1.97-.116-2.959 1.113-.095.12-.078.295.04.395l.077.045zM35.738 11.058c.126.008.24-.07.28-.19.04-.12-.006-.252-.112-.32-.734-.52-1.672-.652-2.52-.357-.141.062-.207.226-.148.369.028.07.083.124.152.152.07.028.147.027.216-.003.673-.225 1.414-.112 1.99.304.042.027.091.043.142.045z" transform="translate(-312 -574) translate(312 574) translate(186 24)"/>
                    <path fill="#FFC3BD" d="M56.036 203.688L61.985 203.403 60.222 189.944 54.278 190.235z" transform="translate(-312 -574) translate(312 574) translate(186 24)"/>
                    <g fill="#000" opacity=".2">
                        <path d="M5.956 0.362L6.867 7.299 0.917 7.584 0.006 0.647z" transform="translate(-312 -574) translate(312 574) translate(186 24) translate(54.265 189.588)"/>
                    </g>
                    <path fill="#2A628F" d="M41.184 69.734s7.487 45.455 10.536 63.178c3.179 18.429 10.336 61.8 10.336 61.8l-7.868 1.295S43.58 152.59 39.33 134.537c-4.613-19.703-15.79-46.123-15.673-64.752l17.527-.051z" transform="translate(-312 -574) translate(312 574) translate(186 24)"/>
                    <path fill="#000" d="M29.161 83.684c-1.124-1.637-3.288-3.934-4.948-5.823 1.505 11.582 5.814 25.021 9.748 37.678 1.047-9.641.452-24.265-4.8-31.855z" opacity=".2" transform="translate(-312 -574) translate(312 574) translate(186 24)"/>
                    <path fill="#FFC3BD" d="M19.329 202.775L25.221 202.775 25.615 189.109 19.716 189.109z" transform="translate(-312 -574) translate(312 574) translate(186 24)"/>
                    <path fill="#263238" d="M25.498 201.882h-6.621c-.238-.002-.44.173-.472.408l-.756 5.241c-.027.27.06.538.241.739.181.2.439.315.709.316 2.306-.045 3.417-.181 6.33-.181 1.79 0 5.492.187 7.966.187s2.584-2.446 1.577-2.672c-4.62-.99-6.46-2.362-7.992-3.675-.275-.231-.622-.36-.982-.363z" transform="translate(-312 -574) translate(312 574) translate(186 24)"/>
                    <g fill="#000" opacity=".2">
                        <path d="M6.228 0.175L6.027 7.221 0.136 7.221 0.336 0.175z" transform="translate(-312 -574) translate(312 574) translate(186 24) translate(19.38 188.941)"/>
                    </g>
                    <path fill="#2A628F" d="M34.459 69.734s-2.39 46.038-4.006 63.961c-1.686 18.649-3.714 60.908-3.714 60.908h-7.972s-1.421-42.098-.866-60.487c.6-20.059-4.212-45.754-.962-64.382h17.52z" transform="translate(-312 -574) translate(312 574) translate(186 24)"/>
                    <path fill="#263238" d="M18.076 194.888L27.423 195.062 27.566 189.355 18.037 189.951z" transform="translate(-312 -574) translate(312 574) translate(186 24)"/>
                    <path fill="#2A628F" d="M27.708 202.937c.503.046 1.007-.082 1.427-.362.193-.173.288-.43.252-.686-.01-.155-.097-.294-.232-.369-.724-.401-3.075.802-3.34.945-.05.028-.079.085-.071.142.007.059.052.106.11.117.61.13 1.23.201 1.854.213zm1.053-1.223c.089-.002.177.015.258.052.056.029.09.086.09.149.03.167-.032.336-.16.446-.356.324-1.325.382-2.63.162.762-.408 1.588-.681 2.442-.809z" transform="translate(-312 -574) translate(312 574) translate(186 24)"/>
                    <path fill="#2A628F" d="M25.88 202.73h.058c.704-.317 2.093-1.592 1.983-2.258 0-.162-.136-.356-.523-.395-.28-.032-.562.054-.776.24-.736.614-.872 2.206-.878 2.27-.005.051.017.1.058.13.024.01.051.015.077.013zm1.408-2.394h.084c.252 0 .271.123.271.162.071.4-.872 1.397-1.59 1.83.056-.668.318-1.304.75-1.817.135-.116.307-.178.485-.175z" transform="translate(-312 -574) translate(312 574) translate(186 24)"/>
                    <path fill="#263238" d="M61.914 201.882h-6.621c-.108-.006-.213.035-.287.114-.073.08-.108.187-.094.294l.335 5.241c.081.588.572 1.032 1.163 1.055 2.3-.045 3.385-.181 6.292-.181 1.796 0 5.537.187 8.011.187 2.474 0 2.093-2.446 1.02-2.672-4.825-.99-6.931-2.362-8.76-3.675-.307-.227-.677-.353-1.059-.363z" transform="translate(-312 -574) translate(312 574) translate(186 24)"/>
                    <path fill="#2A628F" d="M64.124 202.937c.505.046 1.01-.082 1.434-.362.19-.174.285-.43.252-.686-.012-.156-.102-.295-.24-.369-.723-.401-3.068.802-3.333.945-.053.026-.083.083-.077.142.01.057.054.102.11.117.61.13 1.23.201 1.854.213zm1.053-1.223c.089-.004.177.014.258.052.057.028.094.085.097.149.023.166-.038.333-.161.446-.362.324-1.331.382-2.636.162.762-.407 1.588-.68 2.442-.809z" transform="translate(-312 -574) translate(312 574) translate(186 24)"/>
                    <path fill="#2A628F" d="M62.302 202.73h.058c.698-.317 2.087-1.592 1.977-2.258 0-.162-.136-.356-.523-.395-.279-.032-.558.055-.77.24-.742.614-.878 2.206-.884 2.27-.002.05.02.098.058.13.027.011.055.015.084.013zm1.402-2.394h.084c.252 0 .271.123.278.162.064.4-.879 1.397-1.596 1.83.058-.668.32-1.303.75-1.817.135-.115.307-.177.484-.175z" transform="translate(-312 -574) translate(312 574) translate(186 24)"/>
                    <path fill="#263238" d="M53.529 196.376L62.761 194.888 61.721 189.944 52.573 192.105zM28.793 13.258l1.105-.433s-.498.944-1.105.433zM16.893 68.33l-.607 2.148c-.084.161.11.336.388.336H41.3c.22 0 .394-.11.407-.246l.22-2.142c0-.148-.175-.278-.407-.278H17.287c-.154-.013-.303.056-.394.181z" transform="translate(-312 -574) translate(312 574) translate(186 24)"/>
                    <path fill="#2A628F" d="M20.233 71.04h-.646c-.129 0-.226-.064-.22-.142l.304-2.789c0-.084.123-.148.252-.148h.646c.13 0 .226.064.22.148l-.31 2.79c-.007.077-.117.142-.246.142zM39.478 71.04h-.646c-.13 0-.232-.064-.22-.142l.304-2.789c0-.084.123-.148.252-.148h.646c.13 0 .226.064.22.148l-.304 2.79c-.013.077-.123.142-.252.142zM29.891 71.04h-.646c-.129 0-.226-.064-.22-.142l.304-2.789c0-.084.123-.148.252-.148h.646c.13 0 .226.064.213.148l-.303 2.79c0 .077-.117.142-.246.142z" transform="translate(-312 -574) translate(312 574) translate(186 24)"/>
                    <path fill="#2A628F" d="M22.139 32.411c-3.753.343-9.49-.369-9.316 5.397.175 5.765-.943 21.036-.646 28.186.298 7.15-1.563 53.447 1.448 66.867.53 2.361 19.974 2.057 22.326 1.83v-2.128s14.128-1.902 17.623-1.294c-.303-8.063-8.127-48.788-8.43-60.228-.304-11.44.982-31.098.904-34.217-.077-3.119-6.266-4.49-10.058-4.413.84 2.815-1.015 8.101-3.98 13.996-7.293-7.118-9.445-10.65-9.871-13.996z" transform="translate(-312 -574) translate(312 574) translate(186 24)"/>
                    <path fill="#FFF" d="M22.139 32.411c-3.753.343-9.49-.369-9.316 5.397.175 5.765-.943 21.036-.646 28.186.298 7.15-1.563 53.447 1.448 66.867.53 2.361 19.974 2.057 22.326 1.83v-2.128s14.128-1.902 17.623-1.294c-.303-8.063-8.127-48.788-8.43-60.228-.304-11.44.982-31.098.904-34.217-.077-3.119-6.266-4.49-10.058-4.413.84 2.815-1.015 8.101-3.98 13.996-7.293-7.118-9.445-10.65-9.871-13.996z" opacity=".7" transform="translate(-312 -574) translate(312 574) translate(186 24)"/>
                    <path fill="#2A628F" d="M14.994 46.084l-2.403 1.701c-.187 4.983-.44 10.567-.465 14.883 2.235-4.95 3.495-12.094 2.868-16.584z" opacity=".2" transform="translate(-312 -574) translate(312 574) translate(186 24)"/>
                    <path fill="#2A628F" d="M22.65 40.914c-.123.181-.254.356-.395.524l-.135.155-.071.078-.13.135-.258.279-.517.576c-.349.381-.685.776-1.02 1.177-.672.803-1.318 1.62-1.939 2.453-1.267 1.662-2.446 3.39-3.533 5.176-2.137 3.297-3.68 6.943-4.561 10.774-.163.854-.264 1.719-.304 2.588.04.432.166.852.368 1.236.82 1.739 1.807 3.395 2.946 4.943 1.195 1.708 2.552 3.371 3.94 5.015.699.828 1.422 1.63 2.152 2.426.73.796 1.492 1.612 2.203 2.317l-6.964 6.742c-.846-.925-1.596-1.766-2.377-2.653l-2.28-2.672c-1.512-1.792-2.966-3.656-4.4-5.61-1.557-2.064-2.903-4.28-4.018-6.613-.327-.723-.605-1.466-.834-2.226-.134-.452-.24-.912-.316-1.378-.05-.268-.084-.538-.104-.809-.026-.284-.036-.569-.032-.854.015-1.39.134-2.776.355-4.148.448-2.591 1.171-5.127 2.158-7.564.929-2.307 2.008-4.55 3.23-6.716 1.189-2.136 2.494-4.174 3.844-6.167.685-.996 1.382-1.973 2.112-2.937l1.105-1.443.575-.725.29-.362.15-.175.064-.084-.09.103c-.117.15-.227.298-.33.453l9.115 5.986z" transform="translate(-312 -574) translate(312 574) translate(186 24)"/>
                    <path fill="#FFF" d="M22.65 40.914c-.123.181-.254.356-.395.524l-.135.155-.071.078-.13.135-.258.279-.517.576c-.349.381-.685.776-1.02 1.177-.672.803-1.318 1.62-1.939 2.453-1.267 1.662-2.446 3.39-3.533 5.176-2.137 3.297-3.68 6.943-4.561 10.774-.163.854-.264 1.719-.304 2.588.04.432.166.852.368 1.236.82 1.739 1.807 3.395 2.946 4.943 1.195 1.708 2.552 3.371 3.94 5.015.699.828 1.422 1.63 2.152 2.426.73.796 1.492 1.612 2.203 2.317l-6.964 6.742c-.846-.925-1.596-1.766-2.377-2.653l-2.28-2.672c-1.512-1.792-2.966-3.656-4.4-5.61-1.557-2.064-2.903-4.28-4.018-6.613-.327-.723-.605-1.466-.834-2.226-.134-.452-.24-.912-.316-1.378-.05-.268-.084-.538-.104-.809-.026-.284-.036-.569-.032-.854.015-1.39.134-2.776.355-4.148.448-2.591 1.171-5.127 2.158-7.564.929-2.307 2.008-4.55 3.23-6.716 1.189-2.136 2.494-4.174 3.844-6.167.685-.996 1.382-1.973 2.112-2.937l1.105-1.443.575-.725.29-.362.15-.175.064-.084-.09.103c-.117.15-.227.298-.33.453l9.115 5.986z" opacity=".7" transform="translate(-312 -574) translate(312 574) translate(186 24)"/>
                    <path fill="#2A628F" d="M32.017 46.407c.678 13.808 4.36 61.962 3.94 86.156l1.124-.149s-1.744-37.206-2.532-53.486c-.788-16.28-2.532-32.52-2.532-32.52zM20.853 80.882l-6.899 7.48c0 2.51-1.75 7.532 2.888 9.357 4.638 1.825 4.76-11.414 4.011-16.837zM43.348 80.65l3.036 7.622c.09 2.588.976 7.764-.82 9.738-1.796 1.974-2.32-11.75-2.216-17.36z" opacity=".3" transform="translate(-312 -574) translate(312 574) translate(186 24)"/>
                    <path fill="#FFF" stroke="#2A628F" stroke-width=".5" d="M35.809 51.215l7.578-.052c.152.007.3-.054.405-.166.104-.112.154-.264.137-.416l-.42-3.598c-.051-.321-.321-.562-.646-.576l-7.584.045c-.152-.004-.299.057-.403.169-.104.111-.155.262-.14.414l.42 3.604c.055.322.327.562.653.576z" transform="translate(-312 -574) translate(312 574) translate(186 24)"/>
                </g>
            </g>
        </g>
    </g>
</svg>
