<svg xmlns="http://www.w3.org/2000/svg" xmlns:xlink="http://www.w3.org/1999/xlink" width="195" height="195" viewBox="0 0 195 195">
    <defs>
        <path id="f3otseknpa" d="M68.094 19.961C80.084 1.002 110.99-2.5 125.462 16.922c18.605 24.936-1.964 84.442-57.368 105.822C12.69 101.364-7.88 41.858 10.725 16.922c14.472-19.423 45.378-15.92 57.369 3.04"/>
    </defs>
    <g fill="none" fill-rule="evenodd">
        <g>
            <g>
                <g>
                    <g transform="translate(-369 -221) translate(369 221) translate(31.512 18.3) translate(.501 15.727)">
                        <path fill="#1B3E5F" d="M68.094 17.253c12.739-20.143 45.576-23.865 60.951-3.23 19.767 26.493-2.087 89.715-60.951 112.43C9.229 103.738-12.625 40.516 7.142 14.023 22.518-6.611 55.354-2.89 68.094 17.254"/>
                        <mask id="oas87lmyib" fill="#fff">
                            <use xlink:href="#f3otseknpa"/>
                        </mask>
                        <use fill="#1B3E5F" xlink:href="#f3otseknpa"/>
                        <path fill="#FFF" d="M5.11 26.025c1.233-.997 2.986-1.528 4.522-1.116 1.211-.272 3.255.205 3.596 1.39.214.742 1.024 1.11 1.717 1.46 1.037.522 2.043 1.271 2.876 2.076.811-.053 1.914-.21 2.503-.765.67-.067 1.354.022 1.983.257 1.02.383 3.146-.173 4.065.408 1.399.883 2.24 2.636 3.847 3.039.568.143 1.165.091 1.751.117 2.002.087 4.02 1.232 4.77 3.076.751 1.843-.015 4.197-1.896 4.882-1.554-.52-3.444.473-3.886 2.04-.441 1.565.656 3.387 2.255 3.743.078.017.157.032.237.045l.478.07c.239.037.472.087.69.189.567.266.916.832 1.358 1.274.308.31.7.574 1.139.586.84.023 1.425-.9 1.447-1.734.011-.417-.07-.825-.169-1.232l-.156-.61c-.05-.203-.097-.408-.13-.614-.135-.824.022-1.81.747-2.234.741-.435 1.748-.041 2.272.636.523.678.685 1.556.831 2.398.742-.38 1.751-.356 2.585-.395.532.625.579 1.508.743 2.31.178.873.524 1.712 1.013 2.458.355.542.792 1.05.977 1.67.388 1.304-.68 2.826-2.046 2.918-.937.062-1.99-.418-2.753.126-.509.363-.651 1.04-.97 1.575-.443.74-.889 1.28-1.756 1.245-.995-.042-1.999.137-2.918.519-.331.138-.681.334-.796.672-.147.431.146.873.275 1.31.24.811-.123 1.709-.727 2.304-.604.595-1.202 1.438-2.053 1.428-.816-.009-1.605.56-1.848 1.332-.106.333-.116.69-.191 1.03-.075.343-.235.693-.542.866-.306.173-.87.134-.875-.216-.015-1.38-1.482-2.387-2.872-2.427-1.418-.04-2.874.759-3.43 2.054-.557 1.295-.038 3.002 1.23 3.633.652.324 1.406.357 2.134.38.729.023 1.482.049 2.14.36.657.312 1.196.993 1.098 1.71-.061.449-.327.99.015 1.29.207.18.525.141.78.246.285.118.439.382.576.668l.136.289c.046.095.095.188.15.275.385.6 1.639.799 2.316.567.117-1.471 1.997-2.487 3.306-1.786.135.073.268.16.399.251l.262.184c.394.274.79.516 1.243.43.257-.05.48-.203.729-.283.63-.206 1.304.075 1.906.35 1.595.729 3.243 1.498 4.377 2.828.672.788 1.152 1.763 2.002 2.36.928.65 2.132.735 3.267.767 1.136.033 2.327.048 3.32.596.993.548 1.701 1.845 1.447 2.944-.223.962-.653 1.876-1.252 2.663-.508.666-1.163 1.307-1.242 2.138-.056.591.198 1.163.297 1.749.08.475.055.983-.17 1.41-.224.429-.545.872-1.024.95-.347.055-.713.05-1.079.035l-.438-.02c-.727-.03-1.429-.02-1.961.435-.986.843-.514 2.406-.62 3.693-.135 1.609-1.341 2.995-2.808 3.695l-.35.164c-.233.112-.456.24-.626.43-.548.616-.427 1.764-1.185 2.096-.231.101-.496.094-.735.174-.524.177-.823.756-.842 1.305-.019.549.304 1.086.319 1.635.016.584-.185 1.171-.558 1.624-.246.299-.58.576-.61.96-.028.342.198.648.412.917.682.857 1.617 1.677 2.142 2.636.166.302.115.708-.121.96-.236.253-.631.477-.953.347-2.911-1.17-5.083-3.825-6.011-6.803-.928-2.978-.693-6.235.278-9.2.52-1.587 1.247-3.12 1.515-4.766.269-1.648-.01-3.504-1.231-4.65-1.319-1.239-2.78-1.888-3.996-3.225-.654-.721-1.309-1.481-1.619-2.402-.31-.92-.198-2.045.521-2.704.414-.379 1.017-.608 1.217-1.131.247-.649-.554-1.429-.35-2.093-.876.078-1.78-.3-2.335-.976-.207-.25-.368-.54-.603-.765-.911-.874-2.569-.51-3.47-1.394-.185-.183-.326-.41-.52-.584-.422-.378-1.024-.458-1.583-.56-1.078-.194-2.485-.434-3.342-1.11-1.177-.928-2.047-2.233-2.447-3.67-.231-.831-.31-1.7-.572-2.52-.523-1.636-1.831-3.035-3.349-3.857-1.45-.786-2.87-2.01-3.022-3.642-.083-.9.238-1.788.28-2.69.052-1.125-.361-2.498-1.017-3.417-.625-.877-.738-2.004-.831-3.074-.075-.869-.149-1.764.113-2.597.279-.889.91-1.62 1.35-2.44.441-.823.67-1.884.134-2.649-.4-.573-1.123-.825-1.81-.978-1.987-.443-4.424-1.111-5.993.178-.596.489-1.476.323-2.224.13-.35-.09-.75-.222-.875-.56-.107-.294.047-.61.143-.91.252-.783.17-1.881-.354-2.519-.085-.948-.078-2.097.731-2.607.259-.163.567-.231.84-.368.275-.137.533-.381.535-.686.003-.382-.376-.64-.598-.951-.287-.4.01-.623.256-1.05-.138-.345.174-.731.533-.841.358-.11.744-.038 1.119-.021.637.028 1.409.013 1.977-.276.11-.688-.474-1.267-.944-1.785s-1.083-1.611-.538-2.052zm129.968 63.016c1.145-1.284 3.247-2.56 5.046-2.329 1.478.19 2.552 2.166 3.88 2.12-.462-2.01 1.234-1.858 2.064-.44.414.708.53 1.546.639 2.36 2.036 1.56 4.293 3.61 3.993 6.16-.155 1.321-.992 2.448-1.798 3.504l-1.83 2.395c-.298.39-.605.788-1.019 1.052-1.217.776-2.939.048-3.72-1.169-.887-1.383-1.023-3.378-2.464-4.166-1.346-.736-2.98.055-4.33.787-1.348.732-3.09 1.393-4.317.471-.266-.2-.494-.492-.5-.825-.005-.278.142-.532.244-.79.502-1.287-.128-2.701-.434-4.048-.306-1.348.007-3.157 1.35-3.469.458-.105.944-.002 1.4-.111.772-.185 1.267-.91 1.796-1.502zm6.995-65.364c1.68-.547 3.625-.197 5.007.898 1.381 1.096 2.156 2.904 1.993 4.653-.043.47-.15.946-.042 1.405.265 1.137 1.74 1.821 1.695 2.988-.055 1.441-2.205 1.726-2.983 2.944-.511.8-.326 1.835-.388 2.781-.062.947-.675 2.066-1.623 1.96-.776-.087-1.216-.994-1.137-1.766.078-.773.507-1.458.81-2.173.303-.715.471-1.58.053-2.236-.338-.532-1.048-.797-1.655-.62-.608.178-1.06.784-1.054 1.413.001.23.057.46.015.686-.067.359-.264.717-.63.726-1.378 1.093-3.18 1.51-4.656 2.469-1.475.96-2.615 2.94-1.693 4.435.376.61.993.976 1.64 1.316l.49.255c.488.256.965.53 1.343.913.56.569.862 1.343 1.023 2.122.85 4.135-2.659 8.6-6.9 8.779-.326.013-.662.007-.962.133-1.122.468-.837 2.128-.26 3.192.676 1.247 1.503 2.45 1.792 3.836.29 1.386-.135 3.055-1.408 3.691-.571.286-1.207.321-1.854.324h-.557c-.372 0-.743.011-1.103.072-1.172.197-2.33 1.59-1.528 2.463.894.493 1.76 1.23 1.939 2.23.18 1.001-.708 2.176-1.702 1.936-.999-.24-1.478-1.65-2.506-1.66-.741.578-.229 1.742.292 2.523.52.78.9 2.042.064 2.476-1.528-1.926-2.385-4.37-2.392-6.823l-1.463.21c-.904-.612-1.06-1.841-1.49-2.84-.43-1-1.73-1.9-2.536-1.165-.642.587-.355 1.723-.904 2.396-.436.535-1.254.601-1.75 1.08-.633.61-.53 1.618-.598 2.492-.069.874-.673 1.927-1.533 1.736-.84-2.93-2.508-5.618-4.76-7.682-.255-.233-.52-.46-.827-.619-.439-.225-.938-.296-1.425-.38-1.953-.337-3.861-.926-5.662-1.748-1.006-.46-2.344-.935-3.081-.114 1.075 1.248 2.503 2.493 4.148 2.322.271-.028.546-.096.815-.05.697.121 1.05.99.858 1.666-.192.677-.755 1.18-1.322 1.6-1.776 1.317-3.863 2.218-6.043 2.612-1.066-2.246-2.282-4.422-3.635-6.51-.38-.584-1.363-1.127-1.61-.476-.091.24.022.504.134.735l2.532 5.261c.28.584.572 1.182 1.046 1.627 1.367 1.282 3.562.804 5.354.245-.338 2.372-1.672 4.589-3.616 6.006-.225.163-.462.323-.701.485l-.36.244c-1.018.697-1.988 1.456-2.14 2.623-.128.983.403 1.914.768 2.836.365.922.523 2.101-.188 2.796-.323.316-.767.467-1.171.67-1.49.748-2.51 2.342-2.56 4-.002.093-.002.186-.001.278l.014.557c.004.278-.005.554-.062.825-.41 1.92-2.89 2.502-4.858 2.373-.384-.025-.785-.067-1.104-.28-.51-.339-.645-.958-.74-1.587l-.05-.343c-.017-.113-.035-.225-.055-.334-.558-3.036-4.088-5.46-3.244-8.43.184-.65.578-1.251.592-1.925.028-1.301-1.291-2.167-1.999-3.262-.656-1.015-.782-2.349-.328-3.467-.396.475-1.19.279-1.667-.113-.479-.392-.845-.944-1.418-1.18-.579-.237-1.234-.098-1.854-.02-2.713.34-5.637-.681-7.292-2.845-1.655-2.164-1.798-5.446-.093-7.571 1.566-1.954 4.373-2.789 5.52-5.01 1.797 1.241 4.003-.989 6.177-1.234.5-.056 1.088.043 1.349.471.091.151.13.321.155.497l.043.354.03.175c.275 1.279 1.886 1.786 3.193 1.635 1.307-.152 2.579-.711 3.888-.582 1.186.118 2.274.795 3.466.832 1.191.036 2.54-1.159 1.941-2.183-.854-1.462-3.645.167-4.687-1.169-.36-.462-.338-1.112-.59-1.64-.252-.528-1.13-.833-1.368-.3.442.645.017 1.68-.753 1.832-.487-2.236-2.272-4.144-4.48-4.789-.37.566.024 1.32.496 1.804.472.485 1.065.95 1.156 1.618.091.669-.835 1.356-1.251.823-.148-1.453-1.057-2.809-2.349-3.504-.303.49-.995.5-1.56.629-1.001.228-1.847 1.035-2.117 2.02-.12.44-.143.93-.43 1.288-.3.373-.812.5-1.29.537-1.196.094-2.516-.306-3.158-1.312-.642-1.007-.235-2.628.924-2.932.671-.176 1.37.097 2.062.148.692.051 1.55-.308 1.556-.998.009-1.15-2.17-1.257-2.236-2.405 1.568-.42 3.1-.977 4.57-1.662-.049-1.059 1.108-1.807 2.17-1.903 1.062-.097 2.128.217 3.192.142 1.064-.075 2.24-.766 2.256-1.826.007-.543-.28-1.151.045-1.587.55-.74 2.246-.143 2.364-1.055.111-.859-1.297-.682-2.139-.901-.808-.21-1.266-1.254-.872-1.986.21-.389.596-.662.795-1.056.199-.394.052-1.023-.39-1.04-1.947.276-2.92 2.647-2.606 4.575.105.645.309 1.302.164 1.94-.145.637-.828 1.216-1.432.96-.529-.225-.667-.906-1.07-1.313-.524-.53-1.424-.531-1.953-1.055-.656-.65-.426-1.782.109-2.533.535-.75 1.312-1.316 1.784-2.107.753-1.265.614-2.91 1.374-4.17.89-1.472 2.83-2.04 4.54-1.81 1.713.232 3.258 1.108 4.753 1.967.818.47 1.747 1.474 1.119 2.175-.708.792-2.253-.287-3.029.439.047 1.142 1.41 1.856 2.544 1.667 1.134-.188 2.054-.984 2.91-1.747l3.415-3.048c1.146-1.022 2.947-2.054 4.05-.987.571.553 2.997.227 3.459-.42.46-.646.468-1.497.491-2.29.024-.792.113-1.659.676-2.22.142-.141.31-.258.482-.369l.346-.219c.284-.184.544-.385.684-.687.197-.424.092-.919.133-1.384.147-1.652 1.992-2.53 3.578-3.046.736-.239 1.499-.472 2.27-.405.772.067 1.562.508 1.806 1.24.233.7.029 1.678.69 2.014 1.759-1.423 4.304-1.814 6.413-.984.245.096.487.208.728.325l.724.357c.804.39 1.614.725 2.485.62 1.973-.238 2.972-2.53 4.732-3.45 1.204-.63 2.643-.553 4-.46l4.552.308c.848.058 1.714.114 2.536-.1.557-.146 1.074-.411 1.621-.59zM122.98 78.048c1.486-.734 3.86 2.328 4.468 3.543.211.421.386.866.642 1.26.615.943 1.638 1.513 2.673 1.889 1.036.376 2.123.597 3.133 1.04.365.16.775.61.498.904-4.003.058-7.953-2.329-9.88-5.97-.473-.891-1.147-1.821-1.534-2.666zm6.388 3.167c-1.557-2.282 3.452-2.817 4.81-2.539.839.171 1.12.123.925.97-.102.44-1.554 2.467-1.99 2.764-.637.433-1.497.197-2.204-.106-.586-.25-1.181-.56-1.541-1.089zM54.1 18.265c1.263-.526 2.704.02 4.008.08 2.4.108 4.76-.405 7.099.413 1.894.662 3.584 2.316 3.63 4.306.015.616-.127 1.227-.332 1.808-1.05 2.972-3.735 5.244-4.418 8.319-.102.458-.164.94-.224 1.425l-.06.485c-.166 1.29-.397 2.54-1.384 3.32-1.195.943-2.96.695-4.333 1.362-.953.462-1.633 1.323-2.415 2.034-.782.71-1.827 1.313-2.859 1.066-.812-.193-1.413-.87-1.854-1.573-.456-.725-.804-1.53-.907-2.378-.217-1.8.674-3.519 1.306-5.22.632-1.7.96-3.778-.194-5.184-.717-.874-1.853-1.282-2.76-1.961-.908-.68-1.606-1.964-.983-2.908.888-1.341 2.925-.575 4.029-1.552 1.275-1.13.704-3.033 2.65-3.843z" mask="url(#oas87lmyib)"/>
                    </g>
                    <path fill="#091420" d="M29.412 116.548c-1.447-1.648-4.262-4.044-5.554-5.796 1.033-3.348 4.91-15.651 6.305-19.154-4.341-3.091-7.235-7.522-8.579-12.417-1.498-5.616-.879-11.747 2.274-17.156l1.086-1.907 16.021-27.666c.93-1.597 2.481-2.73 4.186-3.142v-.052c1.706-.412 3.567-.258 5.22.721l2.585 1.442.879-1.494 3.876 2.216c2.118 1.185 2.842 3.915 1.601 6.028l-.051.103c-1.24 2.113-3.928 2.885-6.048 1.649l-3.875-2.216.879-1.545-2.585-1.494c-.31-.206-.723-.206-1.085-.155-.361.103-.672.36-.879.67l-15.97 27.666-1.136 1.906c-2.378 4.07-2.844 8.759-1.707 13.035 1.138 4.225 3.929 8.037 8.011 10.407 4.084 2.37 8.787 2.834 13.076 1.7 4.238-1.133 8.063-3.915 10.44-7.986l1.085-1.906L75.49 52.34c.207-.31.259-.721.155-1.082-.103-.36-.31-.67-.671-.876l-2.585-1.442-.878 1.494-3.877-2.216c-2.119-1.184-2.842-3.915-1.601-6.028l.051-.102c1.24-2.113 3.98-2.886 6.099-1.649l3.825 2.215-.88 1.546 2.585 1.494c1.654.927 2.739 2.473 3.204 4.173.465 1.7.258 3.607-.672 5.204L64.223 82.736l-1.086 1.906c-3.153 5.358-8.166 11.355-13.8 12.85-4.65 1.236-9.261 1.906-13.913 0-1.705 4.38-4.823 14.987-6.012 19.056zM85.825 21.84c.57 2.164.26 4.534-.93 6.594-2.274 3.968-7.183 5.514-11.266 3.761 3.152-4.43 7.39-7.934 12.196-10.355z" transform="translate(-369 -221) translate(369 221) translate(31.512 18.3)"/>
                    <path fill="#12283F" d="M119.14 21.026c-.57-6.647-2.636-11.437-6.461-13.602-5.323-3.09-13.438-.721-22.689 5.77l-3.256-4.327c11.164-7.78 21.397-10.356 28.684-6.183 6.202 3.555 9.2 11.438 9.251 22-1.757-1.443-3.618-2.628-5.53-3.658zm-92.151 95.828c-2.481 14.58-.827 25.45 5.478 29.057 6.305 3.658 14.525 1.223 25.947-8.205 1.004.45 3.838 1.846 5.528 2.59-13.283 10.922-25.739 15.25-34.214 10.355-8.476-4.894-10.957-17.774-8.114-34.673 1.499-8.81 4.393-18.754 8.631-29.213l4.754 2.73c-3.927 9.842-6.614 19.167-8.01 27.359z" transform="translate(-369 -221) translate(369 221) translate(31.512 18.3)"/>
                    <path fill="#12283F" d="M82.215 12.336c1.86-1.545 3.654-2.851 5.463-4.087l3.313 4.247c-1.706 1.184-3.708 2.647-5.465 4.142-2.222 1.855-4.611 3.273-6.885 5.489l-3.153-4.483c2.17-2.112 4.608-3.556 6.727-5.308z" transform="translate(-369 -221) translate(369 221) translate(31.512 18.3)"/>
                    <path fill="#C64D53" d="M59.654 82.005l-1.137 1.906c-3.101 5.359-8.166 9.017-13.748 10.51-5.633 1.495-11.784.877-17.21-2.265-5.427-3.092-9.045-8.09-10.544-13.705-1.498-5.616-.878-11.747 2.223-17.157l1.137-1.906 4.703 2.73-1.085 1.907c-2.378 4.07-2.843 8.759-1.706 13.035 1.137 4.224 3.928 8.037 8.011 10.407 4.083 2.37 8.786 2.833 13.024 1.7 4.29-1.133 8.114-3.916 10.492-7.986l1.085-1.907 4.755 2.731" transform="translate(-369 -221) translate(369 221) translate(31.512 18.3)"/>
                    <path fill="#C64D53" d="M20.375 59.388l16.022-27.667c.93-1.596 2.48-2.73 4.186-3.142v-.052c1.705-.412 3.566-.257 5.22.721l2.584 1.443-2.74 4.74-2.583-1.494c-.362-.206-.724-.206-1.086-.155-.361.103-.672.361-.878.67L25.078 62.118l-4.703-2.73zm50.184-15.92l2.584 1.494c1.602.928 2.74 2.473 3.205 4.173.464 1.701.258 3.607-.673 5.204L59.654 82.005l-4.755-2.73 16.022-27.667c.206-.309.259-.72.155-1.081-.103-.36-.362-.67-.672-.877l-2.584-1.442 2.74-4.74zM49.266 29.197l3.876 2.216c2.119 1.185 2.842 3.915 1.602 6.028l-.051.103c-1.241 2.112-3.98 2.885-6.1 1.648l-3.824-2.215 4.497-7.78M71.438 41.923l-3.876-2.216c-2.12-1.236-4.807-.463-6.048 1.65l-.051.102c-1.24 2.113-.517 4.843 1.602 6.028l3.876 2.216 4.497-7.78M81.02 13.544c4.29 2.473 5.788 7.934 3.307 12.159-2.48 4.276-7.959 5.77-12.249 3.297-4.238-2.473-5.737-7.934-3.255-12.21 2.48-4.276 7.958-5.719 12.197-3.246" transform="translate(-369 -221) translate(369 221) translate(31.512 18.3)"/>
                    <path fill="#FFF" d="M78.539 17.82c1.912 1.134 2.532 3.555 1.446 5.41-1.085 1.907-3.513 2.524-5.374 1.443-1.913-1.083-2.584-3.504-1.5-5.358 1.138-1.907 3.567-2.577 5.428-1.494" transform="translate(-369 -221) translate(369 221) translate(31.512 18.3)"/>
                    <path fill="#218089" d="M65.34 165.613l-.005-.057c1.97-.024 3.964-.041 5.976-.048l.004.058c-2.012.006-4.006.022-5.976.047" transform="translate(-369 -221) translate(369 221) translate(31.512 18.3)"/>
                    <path fill="#23818A" d="M65.343 165.67l-.004-.057c1.97-.025 3.964-.041 5.976-.047l.004.056c-2.012.007-4.006.022-5.976.048" transform="translate(-369 -221) translate(369 221) translate(31.512 18.3)"/>
                    <path fill="#24818A" d="M65.348 165.727l-.005-.057c1.97-.026 3.964-.041 5.976-.048l.005.056c-2.012.007-4.007.024-5.976.05" transform="translate(-369 -221) translate(369 221) translate(31.512 18.3)"/>
                    <path fill="#25828C" d="M65.352 165.783l-.004-.056c1.969-.025 3.964-.042 5.976-.049l.004.056c-2.014.007-4.005.024-5.976.05" transform="translate(-369 -221) translate(369 221) translate(31.512 18.3)"/>
                    <path fill="#25838D" d="M65.357 165.84l-.005-.057c1.971-.025 3.962-.042 5.976-.049l.003.058c-2.01.007-4.006.024-5.974.049" transform="translate(-369 -221) translate(369 221) translate(31.512 18.3)"/>
                    <path fill="#26848C" d="M65.36 165.898l-.003-.057c1.968-.025 3.964-.042 5.974-.05l.004.038-.265.02c-1.921.008-3.827.025-5.71.05" transform="translate(-369 -221) translate(369 221) translate(31.512 18.3)"/>
                    <path fill="#27848D" d="M65.365 165.954l-.004-.056c1.882-.024 3.788-.04 5.709-.048l-.767.06c-1.662.008-3.306.023-4.938.044" transform="translate(-369 -221) translate(369 221) translate(31.512 18.3)"/>
                    <path fill="#28858E" d="M65.37 166.012l-.005-.058c1.632-.02 3.276-.036 4.938-.045l-.79.062c-1.392.01-2.774.023-4.143.041" transform="translate(-369 -221) translate(369 221) translate(31.512 18.3)"/>
                    <path fill="#2A868E" d="M65.373 166.069l-.003-.057c1.37-.018 2.751-.032 4.142-.041l-.805.063c-1.12.009-2.23.02-3.334.035" transform="translate(-369 -221) translate(369 221) translate(31.512 18.3)"/>
                    <path fill="#2A868F" d="M65.378 166.126l-.005-.057c1.104-.014 2.215-.026 3.334-.035l-.812.063c-.844.008-1.682.018-2.517.029" transform="translate(-369 -221) translate(369 221) translate(31.512 18.3)"/>
                    <path fill="#2C878F" d="M65.382 166.183l-.004-.057c.835-.011 1.673-.02 2.517-.029l-.84.066c-.56.006-1.117.012-1.673.02" transform="translate(-369 -221) translate(369 221) translate(31.512 18.3)"/>
                    <path fill="#2C888F" d="M65.387 166.24l-.005-.057c.556-.008 1.114-.014 1.673-.02l-.848.066-.82.011" transform="translate(-369 -221) translate(369 221) translate(31.512 18.3)"/>
                    <path fill="#2D8890" d="M65.39 166.293l-.003-.053.82-.011-.816.064" transform="translate(-369 -221) translate(369 221) translate(31.512 18.3)"/>
                </g>
                <g fill="#1B3E5F">
                    <path d="M5.881 35.203l21.62 4.836-1.508 6.615-9.86-2.17 6.834 6.468-.73 3.2-8.629 2.962 9.507 2.155-1.509 6.616L0 60.987l1.362-5.969 13.113-4.406-9.955-9.44 1.361-5.97zM30.54 8.593l3.606 4.316-8.197 6.805 1.661 1.988 7.2-5.977 3.443 4.122-7.2 5.977 1.865 2.23 8.512-7.067 3.606 4.316-14.155 11.753L16.7 20.083 30.54 8.593zM56.906.305c7.379-.648 12.825 3.087 13.428 9.907.603 6.821-4.104 11.448-11.483 12.096l-10.878.956L46.028 1.26zm5.923 10.567c-.297-3.364-2.605-5.03-5.727-4.756l-3.121.275.922 10.435 3.122-.274c3.121-.274 5.102-2.317 4.804-5.68z" transform="translate(-369 -221) translate(369 221)"/>
                </g>
                <g fill="#C64D53">
                    <path d="M11.439 62.421c4.296-.588 7.898.512 10.45 3.029l-4.1 4.797c-1.51-1.45-3.176-2.177-5.151-1.906-3.074.42-4.85 2.83-4.39 6.174.461 3.345 2.824 5.187 5.897 4.767 1.976-.27 3.383-1.419 4.445-3.22l5.245 3.518c-1.776 3.11-4.948 5.136-9.244 5.724-7.056.966-12.88-3.046-13.806-9.767-.926-6.721 3.598-12.15 10.654-13.116zM40.74 51.308l10.373 19.518-6.602 3.486-3.823-7.194-6.097 3.22 3.823 7.194-6.601 3.486L21.44 61.5l6.601-3.486 3.675 6.915 6.098-3.22-3.675-6.915 6.601-3.486zM51.5 39.549l23.007 7.422-5.122 5.763-3.877-1.443-5.584 6.282 1.903 3.663-5.038 5.668-10.16-21.876 4.87-5.479zm3.019 7.642l2.742 5.289 2.855-3.212-5.597-2.077zm6.02-23.005l19.957 9.598-3.246 6.707-19.956-9.598 3.246-6.707zM66.233 0l21.825 3.813-1.06 6.03-11.368 6.535 9.915 1.731-1.257 7.15-21.825-3.813 1.06-6.03L74.89 8.881l-9.915-1.732L66.232 0z" transform="translate(-369 -221) translate(369 221) translate(105.921 108.103)"/>
                </g>
            </g>
        </g>
    </g>
</svg>
